<svg xmlns="http://www.w3.org/2000/svg" viewBox="0 0 100 81.56" width="1356" height="1106"><path fill="currentColor" fill-rule="evenodd" d="M73.43 28.64L54.69 50.19L42.73 77.94L67.38 50.63L67.45 47.83L68.19 44.36Z M81.03 21.85L73.95 28.93L85.68 40.52L67.9 58.38L75.2 65.76L100 40.52Z M74.61 15.5L74.39 15.5L73.8 16.09L73.65 16.39L73.28 16.61L72.69 17.2L72.62 17.42L67.6 22.44L67.6 22.59L72.1 27.01L72.25 27.01L79.19 20.08Z M25.17 15.35L0 40.3L25.39 65.32L32.32 58.16L14.32 40.37L32.18 22.36Z M59.26 1.77L32.69 28.79L32.62 31.52L31.59 36.31L26.64 51.74L45.68 29.75L50.41 19.41Z M75.94 0.15L52.18 27.24L50.85 31L41.62 43.62L23.91 81.56L48.12 52.55L49.89 47.98L59.04 35.65Z"/></svg>